<?xml version="1.0" standalone="no"?>
<!DOCTYPE svg PUBLIC "-//W3C//DTD SVG 1.1//EN" "http://www.w3.org/Graphics/SVG/1.1/DTD/svg11.dtd">
<svg version="1.1" width="1200" height="367" onload="init(evt)" viewBox="0 0 1200 367" xmlns="http://www.w3.org/2000/svg" xmlns:xlink="http://www.w3.org/1999/xlink">
<!-- Flame graph stack visualization. See https://github.com/brendangregg/FlameGraph for latest version, and http://www.brendangregg.com/flamegraphs.html for examples. -->
<!-- NOTES:  -->
<defs>
	<linearGradient id="background" y1="0" y2="1" x1="0" x2="0" >
		<stop stop-color="#eeeeee" offset="5%" />
		<stop stop-color="#eeeeb0" offset="95%" />
	</linearGradient>
</defs>
<style type="text/css">
	text { font-family:Verdana; font-size:12px; fill:rgb(0,0,0); }
	#search, #ignorecase { opacity:0.1; cursor:pointer; }
	#search:hover, #search.show, #ignorecase:hover, #ignorecase.show { opacity:1; }
	#subtitle { text-anchor:middle; font-color:rgb(160,160,160); }
	#title { text-anchor:middle; font-size:17px}
	#unzoom { cursor:pointer; }
	#frames > *:hover { stroke:black; stroke-width:0.5; cursor:pointer; }
	.hide { display:none; }
	.parent { opacity:0.5; }
</style>
<script type="text/ecmascript">
<![CDATA[
	"use strict";
	var details, searchbtn, unzoombtn, matchedtxt, svg, searching, currentSearchTerm, ignorecase, ignorecaseBtn;
	function init(evt) {
		details = document.getElementById("details").firstChild;
		searchbtn = document.getElementById("search");
		ignorecaseBtn = document.getElementById("ignorecase");
		unzoombtn = document.getElementById("unzoom");
		matchedtxt = document.getElementById("matched");
		svg = document.getElementsByTagName("svg")[0];
		searching = 0;
		currentSearchTerm = null;
	}

	window.addEventListener("click", function(e) {
		var target = find_group(e.target);
		if (target) {
			if (target.nodeName == "a") {
				if (e.ctrlKey === false) return;
				e.preventDefault();
			}
			if (target.classList.contains("parent")) unzoom();
			zoom(target);
		}
		else if (e.target.id == "unzoom") unzoom();
		else if (e.target.id == "search") search_prompt();
		else if (e.target.id == "ignorecase") toggle_ignorecase();
	}, false)

	// mouse-over for info
	// show
	window.addEventListener("mouseover", function(e) {
		var target = find_group(e.target);
		if (target) details.nodeValue = "Function: " + g_to_text(target);
	}, false)

	// clear
	window.addEventListener("mouseout", function(e) {
		var target = find_group(e.target);
		if (target) details.nodeValue = ' ';
	}, false)

	// ctrl-F for search
	window.addEventListener("keydown",function (e) {
		if (e.keyCode === 114 || (e.ctrlKey && e.keyCode === 70)) {
			e.preventDefault();
			search_prompt();
		}
	}, false)

	// ctrl-I to toggle case-sensitive search
	window.addEventListener("keydown",function (e) {
		if (e.ctrlKey && e.keyCode === 73) {
			e.preventDefault();
			toggle_ignorecase();
		}
	}, false)

	// functions
	function find_child(node, selector) {
		var children = node.querySelectorAll(selector);
		if (children.length) return children[0];
		return;
	}
	function find_group(node) {
		var parent = node.parentElement;
		if (!parent) return;
		if (parent.id == "frames") return node;
		return find_group(parent);
	}
	function orig_save(e, attr, val) {
		if (e.attributes["_orig_" + attr] != undefined) return;
		if (e.attributes[attr] == undefined) return;
		if (val == undefined) val = e.attributes[attr].value;
		e.setAttribute("_orig_" + attr, val);
	}
	function orig_load(e, attr) {
		if (e.attributes["_orig_"+attr] == undefined) return;
		e.attributes[attr].value = e.attributes["_orig_" + attr].value;
		e.removeAttribute("_orig_"+attr);
	}
	function g_to_text(e) {
		var text = find_child(e, "title").firstChild.nodeValue;
		return (text)
	}
	function g_to_func(e) {
		var func = g_to_text(e);
		// if there's any manipulation we want to do to the function
		// name before it's searched, do it here before returning.
		return (func);
	}
	function update_text(e) {
		var r = find_child(e, "rect");
		var t = find_child(e, "text");
		var w = parseFloat(r.attributes.width.value) -3;
		var txt = find_child(e, "title").textContent.replace(/\([^(]*\)$/,"");
		t.attributes.x.value = parseFloat(r.attributes.x.value) + 3;

		// Smaller than this size won't fit anything
		if (w < 2 * 12 * 0.59) {
			t.textContent = "";
			return;
		}

		t.textContent = txt;
		// Fit in full text width
		if (/^ *$/.test(txt) || t.getSubStringLength(0, txt.length) < w)
			return;

		for (var x = txt.length - 2; x > 0; x--) {
			if (t.getSubStringLength(0, x + 2) <= w) {
				t.textContent = txt.substring(0, x) + "..";
				return;
			}
		}
		t.textContent = "";
	}

	// zoom
	function zoom_reset(e) {
		if (e.attributes != undefined) {
			orig_load(e, "x");
			orig_load(e, "width");
		}
		if (e.childNodes == undefined) return;
		for (var i = 0, c = e.childNodes; i < c.length; i++) {
			zoom_reset(c[i]);
		}
	}
	function zoom_child(e, x, ratio) {
		if (e.attributes != undefined) {
			if (e.attributes.x != undefined) {
				orig_save(e, "x");
				e.attributes.x.value = (parseFloat(e.attributes.x.value) - x - 10) * ratio + 10;
				if (e.tagName == "text")
					e.attributes.x.value = find_child(e.parentNode, "rect[x]").attributes.x.value + 3;
			}
			if (e.attributes.width != undefined) {
				orig_save(e, "width");
				e.attributes.width.value = parseFloat(e.attributes.width.value) * ratio;
			}
		}

		if (e.childNodes == undefined) return;
		for (var i = 0, c = e.childNodes; i < c.length; i++) {
			zoom_child(c[i], x - 10, ratio);
		}
	}
	function zoom_parent(e) {
		if (e.attributes) {
			if (e.attributes.x != undefined) {
				orig_save(e, "x");
				e.attributes.x.value = 10;
			}
			if (e.attributes.width != undefined) {
				orig_save(e, "width");
				e.attributes.width.value = parseInt(svg.width.baseVal.value) - (10 * 2);
			}
		}
		if (e.childNodes == undefined) return;
		for (var i = 0, c = e.childNodes; i < c.length; i++) {
			zoom_parent(c[i]);
		}
	}
	function zoom(node) {
		var attr = find_child(node, "rect").attributes;
		var width = parseFloat(attr.width.value);
		var xmin = parseFloat(attr.x.value);
		var xmax = parseFloat(xmin + width);
		var ymin = parseFloat(attr.y.value);
		var ratio = (svg.width.baseVal.value - 2 * 10) / width;

		// XXX: Workaround for JavaScript float issues (fix me)
		var fudge = 0.0001;

		unzoombtn.classList.remove("hide");

		var el = document.getElementById("frames").children;
		for (var i = 0; i < el.length; i++) {
			var e = el[i];
			var a = find_child(e, "rect").attributes;
			var ex = parseFloat(a.x.value);
			var ew = parseFloat(a.width.value);
			var upstack;
			// Is it an ancestor
			if (0 == 0) {
				upstack = parseFloat(a.y.value) > ymin;
			} else {
				upstack = parseFloat(a.y.value) < ymin;
			}
			if (upstack) {
				// Direct ancestor
				if (ex <= xmin && (ex+ew+fudge) >= xmax) {
					e.classList.add("parent");
					zoom_parent(e);
					update_text(e);
				}
				// not in current path
				else
					e.classList.add("hide");
			}
			// Children maybe
			else {
				// no common path
				if (ex < xmin || ex + fudge >= xmax) {
					e.classList.add("hide");
				}
				else {
					zoom_child(e, xmin, ratio);
					update_text(e);
				}
			}
		}
		search();
	}
	function unzoom() {
		unzoombtn.classList.add("hide");
		var el = document.getElementById("frames").children;
		for(var i = 0; i < el.length; i++) {
			el[i].classList.remove("parent");
			el[i].classList.remove("hide");
			zoom_reset(el[i]);
			update_text(el[i]);
		}
		search();
	}

	// search
	function toggle_ignorecase() {
		ignorecase = !ignorecase;
		if (ignorecase) {
			ignorecaseBtn.classList.add("show");
		} else {
			ignorecaseBtn.classList.remove("show");
		}
		reset_search();
		search();
	}
	function reset_search() {
		var el = document.querySelectorAll("#frames rect");
		for (var i = 0; i < el.length; i++) {
			orig_load(el[i], "fill")
		}
	}
	function search_prompt() {
		if (!searching) {
			var term = prompt("Enter a search term (regexp " +
			    "allowed, eg: ^ext4_)"
			    + (ignorecase ? ", ignoring case" : "")
			    + "\nPress Ctrl-i to toggle case sensitivity", "");
			if (term != null) {
				currentSearchTerm = term;
				search();
			}
		} else {
			reset_search();
			searching = 0;
			currentSearchTerm = null;
			searchbtn.classList.remove("show");
			searchbtn.firstChild.nodeValue = "Search"
			matchedtxt.classList.add("hide");
			matchedtxt.firstChild.nodeValue = ""
		}
	}
	function search(term) {
		if (currentSearchTerm === null) return;
		var term = currentSearchTerm;

		var re = new RegExp(term, ignorecase ? 'i' : '');
		var el = document.getElementById("frames").children;
		var matches = new Object();
		var maxwidth = 0;
		for (var i = 0; i < el.length; i++) {
			var e = el[i];
			var func = g_to_func(e);
			var rect = find_child(e, "rect");
			if (func == null || rect == null)
				continue;

			// Save max width. Only works as we have a root frame
			var w = parseFloat(rect.attributes.width.value);
			if (w > maxwidth)
				maxwidth = w;

			if (func.match(re)) {
				// highlight
				var x = parseFloat(rect.attributes.x.value);
				orig_save(rect, "fill");
				rect.attributes.fill.value = "rgb(230,0,230)";

				// remember matches
				if (matches[x] == undefined) {
					matches[x] = w;
				} else {
					if (w > matches[x]) {
						// overwrite with parent
						matches[x] = w;
					}
				}
				searching = 1;
			}
		}
		if (!searching)
			return;

		searchbtn.classList.add("show");
		searchbtn.firstChild.nodeValue = "Reset Search";

		// calculate percent matched, excluding vertical overlap
		var count = 0;
		var lastx = -1;
		var lastw = 0;
		var keys = Array();
		for (k in matches) {
			if (matches.hasOwnProperty(k))
				keys.push(k);
		}
		// sort the matched frames by their x location
		// ascending, then width descending
		keys.sort(function(a, b){
			return a - b;
		});
		// Step through frames saving only the biggest bottom-up frames
		// thanks to the sort order. This relies on the tree property
		// where children are always smaller than their parents.
		var fudge = 0.0001;	// JavaScript floating point
		for (var k in keys) {
			var x = parseFloat(keys[k]);
			var w = matches[keys[k]];
			if (x >= lastx + lastw - fudge) {
				count += w;
				lastx = x;
				lastw = w;
			}
		}
		// display matched percent
		matchedtxt.classList.remove("hide");
		var pct = 100 * count / maxwidth;
		if (pct != 100) pct = pct.toFixed(1)
		matchedtxt.firstChild.nodeValue = "Matched: " + pct + "%";
	}
]]>
</script>
<rect x="0.0" y="0" width="1200.0" height="367.0" fill="url(#background)"  />
<text id="title" x="600.00" y="24" >rpi-dca6325631_SNAPSHOT_20210418-0347_everything.fR</text>
<text id="details" x="10.00" y="350" > </text>
<text id="unzoom" x="10.00" y="24" class="hide">Reset Zoom</text>
<text id="search" x="1090.00" y="24" >Search</text>
<text id="ignorecase" x="1174.00" y="24" >ic</text>
<text id="matched" x="1090.00" y="350" > </text>
<g id="frames">
<g >
<title>net_rx_action (1 samples, 6.67%)</title><rect x="639.3" y="268" width="78.7" height="10.0" fill="rgb(231,117,35)" rx="2" ry="2" />
<text  x="642.33" y="276" >net_rx_ac..</text>
</g>
<g >
<title>swapper (1 samples, 6.67%)</title><rect x="954.0" y="37" width="78.7" height="10.0" fill="rgb(250,222,4)" rx="2" ry="2" />
<text  x="957.00" y="45" >swapper</text>
</g>
<g >
<title>[dnsmasq] (2 samples, 13.33%)</title><rect x="246.0" y="290" width="157.3" height="10.0" fill="rgb(242,123,25)" rx="2" ry="2" />
<text  x="249.00" y="298" >[dnsmasq]</text>
</g>
<g >
<title>el1_irq (1 samples, 6.67%)</title><rect x="954.0" y="114" width="78.7" height="10.0" fill="rgb(246,156,48)" rx="2" ry="2" />
<text  x="957.00" y="122" >el1_irq</text>
</g>
<g >
<title>process_backlog (1 samples, 6.67%)</title><rect x="954.0" y="191" width="78.7" height="10.0" fill="rgb(209,205,37)" rx="2" ry="2" />
<text  x="957.00" y="199" >process_b..</text>
</g>
<g >
<title>ipv6_defrag (1 samples, 6.67%)</title><rect x="954.0" y="312" width="78.7" height="10.0" fill="rgb(209,166,49)" rx="2" ry="2" />
<text  x="957.00" y="320" >ipv6_defrag</text>
</g>
<g >
<title>[libc.so] (1 samples, 6.67%)</title><rect x="796.7" y="235" width="78.6" height="10.0" fill="rgb(214,10,10)" rx="2" ry="2" />
<text  x="799.67" y="243" >[libc.so]</text>
</g>
<g >
<title>finish_task_switch (1 samples, 6.67%)</title><rect x="875.3" y="312" width="78.7" height="10.0" fill="rgb(217,77,30)" rx="2" ry="2" />
<text  x="878.33" y="320" >finish_ta..</text>
</g>
<g >
<title>rcu_sched (1 samples, 6.67%)</title><rect x="875.3" y="246" width="78.7" height="10.0" fill="rgb(209,119,28)" rx="2" ry="2" />
<text  x="878.33" y="254" >rcu_sched</text>
</g>
<g >
<title>run_ksoftirqd (1 samples, 6.67%)</title><rect x="403.3" y="103" width="78.7" height="10.0" fill="rgb(245,165,36)" rx="2" ry="2" />
<text  x="406.33" y="111" >run_ksoft..</text>
</g>
<g >
<title>ret_from_fork (1 samples, 6.67%)</title><rect x="560.7" y="246" width="78.6" height="10.0" fill="rgb(242,187,8)" rx="2" ry="2" />
<text  x="563.67" y="254" >ret_from_..</text>
</g>
<g >
<title>jbd2_journal_commit_transaction (1 samples, 6.67%)</title><rect x="1111.3" y="224" width="78.7" height="10.0" fill="rgb(215,213,12)" rx="2" ry="2" />
<text  x="1114.33" y="232" >jbd2_jour..</text>
</g>
<g >
<title>br_handle_frame_finish (1 samples, 6.67%)</title><rect x="403.3" y="202" width="78.7" height="10.0" fill="rgb(224,104,34)" rx="2" ry="2" />
<text  x="406.33" y="210" >br_handle..</text>
</g>
<g >
<title>[libc.so] (2 samples, 13.33%)</title><rect x="246.0" y="268" width="157.3" height="10.0" fill="rgb(228,28,34)" rx="2" ry="2" />
<text  x="249.00" y="276" >[libc.so]</text>
</g>
<g >
<title>dbs_update (1 samples, 6.67%)</title><rect x="560.7" y="312" width="78.6" height="10.0" fill="rgb(216,179,5)" rx="2" ry="2" />
<text  x="563.67" y="320" >dbs_update</text>
</g>
<g >
<title>napi_gro_receive (1 samples, 6.67%)</title><rect x="639.3" y="301" width="78.7" height="10.0" fill="rgb(221,51,0)" rx="2" ry="2" />
<text  x="642.33" y="309" >napi_gro_..</text>
</g>
<g >
<title>dnsmasq (1 samples, 6.67%)</title><rect x="796.7" y="213" width="78.6" height="10.0" fill="rgb(226,102,1)" rx="2" ry="2" />
<text  x="799.67" y="221" >dnsmasq</text>
</g>
<g >
<title>__napi_poll (1 samples, 6.67%)</title><rect x="403.3" y="136" width="78.7" height="10.0" fill="rgb(249,204,53)" rx="2" ry="2" />
<text  x="406.33" y="144" >__napi_poll</text>
</g>
<g >
<title>[unknown] (1 samples, 6.67%)</title><rect x="10.0" y="257" width="78.7" height="10.0" fill="rgb(245,8,43)" rx="2" ry="2" />
<text  x="13.00" y="265" >[unknown]</text>
</g>
<g >
<title>kthread (1 samples, 6.67%)</title><rect x="639.3" y="224" width="78.7" height="10.0" fill="rgb(232,163,47)" rx="2" ry="2" />
<text  x="642.33" y="232" >kthread</text>
</g>
<g >
<title>ret_from_fork (1 samples, 6.67%)</title><rect x="639.3" y="213" width="78.7" height="10.0" fill="rgb(217,12,52)" rx="2" ry="2" />
<text  x="642.33" y="221" >ret_from_..</text>
</g>
<g >
<title>do_sys_poll (1 samples, 6.67%)</title><rect x="796.7" y="312" width="78.6" height="10.0" fill="rgb(246,62,54)" rx="2" ry="2" />
<text  x="799.67" y="320" >do_sys_poll</text>
</g>
<g >
<title>genphy_read_status (1 samples, 6.67%)</title><rect x="482.0" y="257" width="78.7" height="10.0" fill="rgb(243,212,18)" rx="2" ry="2" />
<text  x="485.00" y="265" >genphy_re..</text>
</g>
<g >
<title>smpboot_thread_fn (1 samples, 6.67%)</title><rect x="639.3" y="235" width="78.7" height="10.0" fill="rgb(232,49,16)" rx="2" ry="2" />
<text  x="642.33" y="243" >smpboot_t..</text>
</g>
<g >
<title>[libc.so] (2 samples, 13.33%)</title><rect x="88.7" y="279" width="157.3" height="10.0" fill="rgb(222,147,4)" rx="2" ry="2" />
<text  x="91.67" y="287" >[libc.so]</text>
</g>
<g >
<title>cpu_startup_entry (1 samples, 6.67%)</title><rect x="718.0" y="301" width="78.7" height="10.0" fill="rgb(240,4,32)" rx="2" ry="2" />
<text  x="721.00" y="309" >cpu_start..</text>
</g>
<g >
<title>scsi_queue_rq (1 samples, 6.67%)</title><rect x="1111.3" y="312" width="78.7" height="10.0" fill="rgb(236,7,1)" rx="2" ry="2" />
<text  x="1114.33" y="320" >scsi_queu..</text>
</g>
<g >
<title>__noinstr_text_start (1 samples, 6.67%)</title><rect x="954.0" y="70" width="78.7" height="10.0" fill="rgb(219,30,29)" rx="2" ry="2" />
<text  x="957.00" y="78" >__noinstr..</text>
</g>
<g >
<title>__netif_receive_skb_core (1 samples, 6.67%)</title><rect x="403.3" y="180" width="78.7" height="10.0" fill="rgb(225,131,27)" rx="2" ry="2" />
<text  x="406.33" y="188" >__netif_r..</text>
</g>
<g >
<title>__arm64_sys_ppoll (1 samples, 6.67%)</title><rect x="796.7" y="301" width="78.6" height="10.0" fill="rgb(245,13,16)" rx="2" ry="2" />
<text  x="799.67" y="309" >__arm64_s..</text>
</g>
<g >
<title>process_backlog (1 samples, 6.67%)</title><rect x="403.3" y="147" width="78.7" height="10.0" fill="rgb(246,160,8)" rx="2" ry="2" />
<text  x="406.33" y="155" >process_b..</text>
</g>
<g >
<title>do_idle (1 samples, 6.67%)</title><rect x="718.0" y="312" width="78.7" height="10.0" fill="rgb(207,32,34)" rx="2" ry="2" />
<text  x="721.00" y="320" >do_idle</text>
</g>
<g >
<title>kthread (1 samples, 6.67%)</title><rect x="1111.3" y="202" width="78.7" height="10.0" fill="rgb(219,133,49)" rx="2" ry="2" />
<text  x="1114.33" y="210" >kthread</text>
</g>
<g >
<title>all (15 samples, 100%)</title><rect x="10.0" y="323" width="1180.0" height="10.0" fill="rgb(221,59,54)" rx="2" ry="2" />
<text  x="13.00" y="331" ></text>
</g>
<g >
<title>ret_from_fork (1 samples, 6.67%)</title><rect x="482.0" y="191" width="78.7" height="10.0" fill="rgb(215,222,29)" rx="2" ry="2" />
<text  x="485.00" y="199" >ret_from_..</text>
</g>
<g >
<title>[unknown] (2 samples, 13.33%)</title><rect x="88.7" y="268" width="157.3" height="10.0" fill="rgb(219,136,42)" rx="2" ry="2" />
<text  x="91.67" y="276" >[unknown]</text>
</g>
<g >
<title>kworker/1:1-eve (1 samples, 6.67%)</title><rect x="1032.7" y="246" width="78.6" height="10.0" fill="rgb(254,196,1)" rx="2" ry="2" />
<text  x="1035.67" y="254" >kworker/1..</text>
</g>
<g >
<title>__netif_receive_skb_one_core (1 samples, 6.67%)</title><rect x="403.3" y="169" width="78.7" height="10.0" fill="rgb(205,47,41)" rx="2" ry="2" />
<text  x="406.33" y="177" >__netif_r..</text>
</g>
<g >
<title>cpu_startup_entry (1 samples, 6.67%)</title><rect x="954.0" y="81" width="78.7" height="10.0" fill="rgb(230,85,26)" rx="2" ry="2" />
<text  x="957.00" y="89" >cpu_start..</text>
</g>
<g >
<title>rcu_idle_exit (1 samples, 6.67%)</title><rect x="954.0" y="103" width="78.7" height="10.0" fill="rgb(218,164,13)" rx="2" ry="2" />
<text  x="957.00" y="111" >rcu_idle_..</text>
</g>
<g >
<title>__softirqentry_text_start (1 samples, 6.67%)</title><rect x="954.0" y="158" width="78.7" height="10.0" fill="rgb(241,65,21)" rx="2" ry="2" />
<text  x="957.00" y="166" >__softirq..</text>
</g>
<g >
<title>__netif_receive_skb_one_core (1 samples, 6.67%)</title><rect x="954.0" y="213" width="78.7" height="10.0" fill="rgb(225,198,51)" rx="2" ry="2" />
<text  x="957.00" y="221" >__netif_r..</text>
</g>
<g >
<title>[libc.so] (1 samples, 6.67%)</title><rect x="796.7" y="268" width="78.6" height="10.0" fill="rgb(213,187,11)" rx="2" ry="2" />
<text  x="799.67" y="276" >[libc.so]</text>
</g>
<g >
<title>blk_finish_plug (1 samples, 6.67%)</title><rect x="1111.3" y="235" width="78.7" height="10.0" fill="rgb(232,116,6)" rx="2" ry="2" />
<text  x="1114.33" y="243" >blk_finis..</text>
</g>
<g >
<title>br_handle_frame_finish (1 samples, 6.67%)</title><rect x="954.0" y="246" width="78.7" height="10.0" fill="rgb(236,58,43)" rx="2" ry="2" />
<text  x="957.00" y="254" >br_handle..</text>
</g>
<g >
<title>worker_thread (1 samples, 6.67%)</title><rect x="1032.7" y="279" width="78.6" height="10.0" fill="rgb(233,87,4)" rx="2" ry="2" />
<text  x="1035.67" y="287" >worker_th..</text>
</g>
<g >
<title>kthread (1 samples, 6.67%)</title><rect x="1032.7" y="268" width="78.6" height="10.0" fill="rgb(212,196,18)" rx="2" ry="2" />
<text  x="1035.67" y="276" >kthread</text>
</g>
<g >
<title>dbs_work_handler (1 samples, 6.67%)</title><rect x="560.7" y="290" width="78.6" height="10.0" fill="rgb(250,118,38)" rx="2" ry="2" />
<text  x="563.67" y="298" >dbs_work_..</text>
</g>
<g >
<title>blk_mq_sched_insert_requests (1 samples, 6.67%)</title><rect x="1111.3" y="268" width="78.7" height="10.0" fill="rgb(205,104,51)" rx="2" ry="2" />
<text  x="1114.33" y="276" >blk_mq_sc..</text>
</g>
<g >
<title>__netif_receive_skb_core (1 samples, 6.67%)</title><rect x="954.0" y="224" width="78.7" height="10.0" fill="rgb(229,34,7)" rx="2" ry="2" />
<text  x="957.00" y="232" >__netif_r..</text>
</g>
<g >
<title>kthread (1 samples, 6.67%)</title><rect x="482.0" y="202" width="78.7" height="10.0" fill="rgb(243,127,26)" rx="2" ry="2" />
<text  x="485.00" y="210" >kthread</text>
</g>
<g >
<title>dnsmasq (2 samples, 13.33%)</title><rect x="246.0" y="246" width="157.3" height="10.0" fill="rgb(224,0,18)" rx="2" ry="2" />
<text  x="249.00" y="254" >dnsmasq</text>
</g>
<g >
<title>mod_delayed_work_on (1 samples, 6.67%)</title><rect x="1032.7" y="312" width="78.6" height="10.0" fill="rgb(210,102,7)" rx="2" ry="2" />
<text  x="1035.67" y="320" >mod_delay..</text>
</g>
<g >
<title>blk_flush_plug_list (1 samples, 6.67%)</title><rect x="1111.3" y="246" width="78.7" height="10.0" fill="rgb(246,209,35)" rx="2" ry="2" />
<text  x="1114.33" y="254" >blk_flush..</text>
</g>
<g >
<title>__schedule (1 samples, 6.67%)</title><rect x="875.3" y="301" width="78.7" height="10.0" fill="rgb(207,216,25)" rx="2" ry="2" />
<text  x="878.33" y="309" >__schedule</text>
</g>
<g >
<title>nf_conntrack_tcp_packet (1 samples, 6.67%)</title><rect x="403.3" y="301" width="78.7" height="10.0" fill="rgb(237,192,32)" rx="2" ry="2" />
<text  x="406.33" y="309" >nf_conntr..</text>
</g>
<g >
<title>blk_mq_flush_plug_list (1 samples, 6.67%)</title><rect x="1111.3" y="257" width="78.7" height="10.0" fill="rgb(221,210,16)" rx="2" ry="2" />
<text  x="1114.33" y="265" >blk_mq_fl..</text>
</g>
<g >
<title>br_pass_frame_up (1 samples, 6.67%)</title><rect x="403.3" y="213" width="78.7" height="10.0" fill="rgb(241,183,38)" rx="2" ry="2" />
<text  x="406.33" y="221" >br_pass_f..</text>
</g>
<g >
<title>mdiobus_read (1 samples, 6.67%)</title><rect x="482.0" y="279" width="78.7" height="10.0" fill="rgb(214,83,10)" rx="2" ry="2" />
<text  x="485.00" y="287" >mdiobus_r..</text>
</g>
<g >
<title>__netif_receive_skb (1 samples, 6.67%)</title><rect x="403.3" y="235" width="78.7" height="10.0" fill="rgb(205,60,7)" rx="2" ry="2" />
<text  x="406.33" y="243" >__netif_r..</text>
</g>
<g >
<title>ksoftirqd/0 (1 samples, 6.67%)</title><rect x="639.3" y="202" width="78.7" height="10.0" fill="rgb(214,23,26)" rx="2" ry="2" />
<text  x="642.33" y="210" >ksoftirqd/0</text>
</g>
<g >
<title>[dnsmasq] (3 samples, 20.00%)</title><rect x="10.0" y="290" width="236.0" height="10.0" fill="rgb(223,155,23)" rx="2" ry="2" />
<text  x="13.00" y="298" >[dnsmasq]</text>
</g>
<g >
<title>bcmgenet_mii_wait (1 samples, 6.67%)</title><rect x="482.0" y="312" width="78.7" height="10.0" fill="rgb(222,196,53)" rx="2" ry="2" />
<text  x="485.00" y="320" >bcmgenet_..</text>
</g>
<g >
<title>[dnsmasq] (3 samples, 20.00%)</title><rect x="10.0" y="312" width="236.0" height="10.0" fill="rgb(242,95,1)" rx="2" ry="2" />
<text  x="13.00" y="320" >[dnsmasq]</text>
</g>
<g >
<title>el0_svc (1 samples, 6.67%)</title><rect x="796.7" y="279" width="78.6" height="10.0" fill="rgb(224,188,1)" rx="2" ry="2" />
<text  x="799.67" y="287" >el0_svc</text>
</g>
<g >
<title>unimac_mdio_read (1 samples, 6.67%)</title><rect x="482.0" y="301" width="78.7" height="10.0" fill="rgb(228,31,17)" rx="2" ry="2" />
<text  x="485.00" y="309" >unimac_md..</text>
</g>
<g >
<title>bcmgenet_rx_poll (1 samples, 6.67%)</title><rect x="639.3" y="290" width="78.7" height="10.0" fill="rgb(212,88,43)" rx="2" ry="2" />
<text  x="642.33" y="298" >bcmgenet_..</text>
</g>
<g >
<title>schedule (1 samples, 6.67%)</title><rect x="875.3" y="290" width="78.7" height="10.0" fill="rgb(231,219,30)" rx="2" ry="2" />
<text  x="878.33" y="298" >schedule</text>
</g>
<g >
<title>[dnsmasq] (1 samples, 6.67%)</title><rect x="10.0" y="279" width="78.7" height="10.0" fill="rgb(221,63,30)" rx="2" ry="2" />
<text  x="13.00" y="287" >[dnsmasq]</text>
</g>
<g >
<title>genphy_update_link (1 samples, 6.67%)</title><rect x="482.0" y="268" width="78.7" height="10.0" fill="rgb(213,142,43)" rx="2" ry="2" />
<text  x="485.00" y="276" >genphy_up..</text>
</g>
<g >
<title>rcu_gp_kthread (1 samples, 6.67%)</title><rect x="875.3" y="279" width="78.7" height="10.0" fill="rgb(251,186,5)" rx="2" ry="2" />
<text  x="878.33" y="287" >rcu_gp_kt..</text>
</g>
<g >
<title>process_one_work (1 samples, 6.67%)</title><rect x="560.7" y="279" width="78.6" height="10.0" fill="rgb(207,115,21)" rx="2" ry="2" />
<text  x="563.67" y="287" >process_o..</text>
</g>
<g >
<title>gic_handle_irq (1 samples, 6.67%)</title><rect x="954.0" y="125" width="78.7" height="10.0" fill="rgb(253,8,41)" rx="2" ry="2" />
<text  x="957.00" y="133" >gic_handl..</text>
</g>
<g >
<title>ipv6_conntrack_in (1 samples, 6.67%)</title><rect x="403.3" y="279" width="78.7" height="10.0" fill="rgb(244,31,20)" rx="2" ry="2" />
<text  x="406.33" y="287" >ipv6_conn..</text>
</g>
<g >
<title>el0_svc_handler (1 samples, 6.67%)</title><rect x="796.7" y="290" width="78.6" height="10.0" fill="rgb(228,131,38)" rx="2" ry="2" />
<text  x="799.67" y="298" >el0_svc_h..</text>
</g>
<g >
<title>nf_hook_slow (1 samples, 6.67%)</title><rect x="403.3" y="268" width="78.7" height="10.0" fill="rgb(246,129,48)" rx="2" ry="2" />
<text  x="406.33" y="276" >nf_hook_s..</text>
</g>
<g >
<title>arch_call_rest_init (1 samples, 6.67%)</title><rect x="954.0" y="59" width="78.7" height="10.0" fill="rgb(206,78,6)" rx="2" ry="2" />
<text  x="957.00" y="67" >arch_call..</text>
</g>
<g >
<title>do_idle (1 samples, 6.67%)</title><rect x="954.0" y="92" width="78.7" height="10.0" fill="rgb(221,46,42)" rx="2" ry="2" />
<text  x="957.00" y="100" >do_idle</text>
</g>
<g >
<title>ret_from_fork (1 samples, 6.67%)</title><rect x="403.3" y="70" width="78.7" height="10.0" fill="rgb(247,49,23)" rx="2" ry="2" />
<text  x="406.33" y="78" >ret_from_..</text>
</g>
<g >
<title>ipv6_rcv (1 samples, 6.67%)</title><rect x="954.0" y="301" width="78.7" height="10.0" fill="rgb(209,134,28)" rx="2" ry="2" />
<text  x="957.00" y="309" >ipv6_rcv</text>
</g>
<g >
<title>arch_call_rest_init (1 samples, 6.67%)</title><rect x="718.0" y="279" width="78.7" height="10.0" fill="rgb(242,116,50)" rx="2" ry="2" />
<text  x="721.00" y="287" >arch_call..</text>
</g>
<g >
<title>worker_thread (1 samples, 6.67%)</title><rect x="560.7" y="268" width="78.6" height="10.0" fill="rgb(232,182,31)" rx="2" ry="2" />
<text  x="563.67" y="276" >worker_th..</text>
</g>
<g >
<title>worker_thread (1 samples, 6.67%)</title><rect x="482.0" y="213" width="78.7" height="10.0" fill="rgb(219,92,45)" rx="2" ry="2" />
<text  x="485.00" y="221" >worker_th..</text>
</g>
<g >
<title>phy_check_link_status (1 samples, 6.67%)</title><rect x="482.0" y="246" width="78.7" height="10.0" fill="rgb(247,17,9)" rx="2" ry="2" />
<text  x="485.00" y="254" >phy_check..</text>
</g>
<g >
<title>[dnsmasq] (2 samples, 13.33%)</title><rect x="246.0" y="301" width="157.3" height="10.0" fill="rgb(226,29,34)" rx="2" ry="2" />
<text  x="249.00" y="309" >[dnsmasq]</text>
</g>
<g >
<title>swapper (1 samples, 6.67%)</title><rect x="718.0" y="257" width="78.7" height="10.0" fill="rgb(230,10,53)" rx="2" ry="2" />
<text  x="721.00" y="265" >swapper</text>
</g>
<g >
<title>phy_state_machine (1 samples, 6.67%)</title><rect x="1032.7" y="301" width="78.6" height="10.0" fill="rgb(228,17,9)" rx="2" ry="2" />
<text  x="1035.67" y="309" >phy_state..</text>
</g>
<g >
<title>kthread (1 samples, 6.67%)</title><rect x="403.3" y="81" width="78.7" height="10.0" fill="rgb(250,57,51)" rx="2" ry="2" />
<text  x="406.33" y="89" >kthread</text>
</g>
<g >
<title>run_ksoftirqd (1 samples, 6.67%)</title><rect x="639.3" y="246" width="78.7" height="10.0" fill="rgb(221,138,30)" rx="2" ry="2" />
<text  x="642.33" y="254" >run_ksoft..</text>
</g>
<g >
<title>__netif_receive_skb_one_core (1 samples, 6.67%)</title><rect x="403.3" y="246" width="78.7" height="10.0" fill="rgb(243,172,1)" rx="2" ry="2" />
<text  x="406.33" y="254" >__netif_r..</text>
</g>
<g >
<title>[dnsmasq] (1 samples, 6.67%)</title><rect x="796.7" y="246" width="78.6" height="10.0" fill="rgb(208,11,40)" rx="2" ry="2" />
<text  x="799.67" y="254" >[dnsmasq]</text>
</g>
<g >
<title>kjournald2 (1 samples, 6.67%)</title><rect x="1111.3" y="213" width="78.7" height="10.0" fill="rgb(236,56,34)" rx="2" ry="2" />
<text  x="1114.33" y="221" >kjournald2</text>
</g>
<g >
<title>dev_gro_receive (1 samples, 6.67%)</title><rect x="639.3" y="312" width="78.7" height="10.0" fill="rgb(215,49,10)" rx="2" ry="2" />
<text  x="642.33" y="320" >dev_gro_r..</text>
</g>
<g >
<title>netif_receive_skb (1 samples, 6.67%)</title><rect x="403.3" y="224" width="78.7" height="10.0" fill="rgb(223,34,0)" rx="2" ry="2" />
<text  x="406.33" y="232" >netif_rec..</text>
</g>
<g >
<title>irq_exit (1 samples, 6.67%)</title><rect x="954.0" y="147" width="78.7" height="10.0" fill="rgb(224,25,3)" rx="2" ry="2" />
<text  x="957.00" y="155" >irq_exit</text>
</g>
<g >
<title>__mdiobus_read (1 samples, 6.67%)</title><rect x="482.0" y="290" width="78.7" height="10.0" fill="rgb(221,20,40)" rx="2" ry="2" />
<text  x="485.00" y="298" >__mdiobus..</text>
</g>
<g >
<title>start_kernel (1 samples, 6.67%)</title><rect x="954.0" y="48" width="78.7" height="10.0" fill="rgb(239,98,10)" rx="2" ry="2" />
<text  x="957.00" y="56" >start_ker..</text>
</g>
<g >
<title>ret_from_fork (1 samples, 6.67%)</title><rect x="875.3" y="257" width="78.7" height="10.0" fill="rgb(232,85,37)" rx="2" ry="2" />
<text  x="878.33" y="265" >ret_from_..</text>
</g>
<g >
<title>__netif_receive_skb (1 samples, 6.67%)</title><rect x="954.0" y="279" width="78.7" height="10.0" fill="rgb(220,200,43)" rx="2" ry="2" />
<text  x="957.00" y="287" >__netif_r..</text>
</g>
<g >
<title>kthread (1 samples, 6.67%)</title><rect x="875.3" y="268" width="78.7" height="10.0" fill="rgb(217,55,16)" rx="2" ry="2" />
<text  x="878.33" y="276" >kthread</text>
</g>
<g >
<title>kthread (1 samples, 6.67%)</title><rect x="560.7" y="257" width="78.6" height="10.0" fill="rgb(240,145,33)" rx="2" ry="2" />
<text  x="563.67" y="265" >kthread</text>
</g>
<g >
<title>__netif_receive_skb (1 samples, 6.67%)</title><rect x="954.0" y="202" width="78.7" height="10.0" fill="rgb(226,43,12)" rx="2" ry="2" />
<text  x="957.00" y="210" >__netif_r..</text>
</g>
<g >
<title>__noinstr_text_start (1 samples, 6.67%)</title><rect x="718.0" y="290" width="78.7" height="10.0" fill="rgb(253,206,0)" rx="2" ry="2" />
<text  x="721.00" y="298" >__noinstr..</text>
</g>
<g >
<title>kworker/1:1-eve (1 samples, 6.67%)</title><rect x="482.0" y="180" width="78.7" height="10.0" fill="rgb(238,112,27)" rx="2" ry="2" />
<text  x="485.00" y="188" >kworker/1..</text>
</g>
<g >
<title>__netif_receive_skb (1 samples, 6.67%)</title><rect x="403.3" y="158" width="78.7" height="10.0" fill="rgb(248,173,47)" rx="2" ry="2" />
<text  x="406.33" y="166" >__netif_r..</text>
</g>
<g >
<title>ret_from_fork (1 samples, 6.67%)</title><rect x="1111.3" y="191" width="78.7" height="10.0" fill="rgb(234,130,35)" rx="2" ry="2" />
<text  x="1114.33" y="199" >ret_from_..</text>
</g>
<g >
<title>[dnsmasq] (2 samples, 13.33%)</title><rect x="246.0" y="279" width="157.3" height="10.0" fill="rgb(221,186,6)" rx="2" ry="2" />
<text  x="249.00" y="287" >[dnsmasq]</text>
</g>
<g >
<title>net_rx_action (1 samples, 6.67%)</title><rect x="954.0" y="169" width="78.7" height="10.0" fill="rgb(238,187,1)" rx="2" ry="2" />
<text  x="957.00" y="177" >net_rx_ac..</text>
</g>
<g >
<title>__napi_poll (1 samples, 6.67%)</title><rect x="954.0" y="180" width="78.7" height="10.0" fill="rgb(233,228,48)" rx="2" ry="2" />
<text  x="957.00" y="188" >__napi_poll</text>
</g>
<g >
<title>ipv6_rcv (1 samples, 6.67%)</title><rect x="403.3" y="257" width="78.7" height="10.0" fill="rgb(243,152,52)" rx="2" ry="2" />
<text  x="406.33" y="265" >ipv6_rcv</text>
</g>
<g >
<title>dnsmasq (1 samples, 6.67%)</title><rect x="10.0" y="246" width="78.7" height="10.0" fill="rgb(206,63,41)" rx="2" ry="2" />
<text  x="13.00" y="254" >dnsmasq</text>
</g>
<g >
<title>br_handle_frame (1 samples, 6.67%)</title><rect x="954.0" y="235" width="78.7" height="10.0" fill="rgb(253,64,31)" rx="2" ry="2" />
<text  x="957.00" y="243" >br_handle..</text>
</g>
<g >
<title>kworker/0:1-eve (1 samples, 6.67%)</title><rect x="560.7" y="235" width="78.6" height="10.0" fill="rgb(246,93,23)" rx="2" ry="2" />
<text  x="563.67" y="243" >kworker/0..</text>
</g>
<g >
<title>[unknown] (2 samples, 13.33%)</title><rect x="246.0" y="257" width="157.3" height="10.0" fill="rgb(219,93,47)" rx="2" ry="2" />
<text  x="249.00" y="265" >[unknown]</text>
</g>
<g >
<title>__local_bh_enable_ip (1 samples, 6.67%)</title><rect x="403.3" y="312" width="78.7" height="10.0" fill="rgb(245,110,6)" rx="2" ry="2" />
<text  x="406.33" y="320" >__local_b..</text>
</g>
<g >
<title>nf_conntrack_in (1 samples, 6.67%)</title><rect x="403.3" y="290" width="78.7" height="10.0" fill="rgb(231,97,5)" rx="2" ry="2" />
<text  x="406.33" y="298" >nf_conntr..</text>
</g>
<g >
<title>[libc.so] (1 samples, 6.67%)</title><rect x="10.0" y="268" width="78.7" height="10.0" fill="rgb(220,175,45)" rx="2" ry="2" />
<text  x="13.00" y="276" >[libc.so]</text>
</g>
<g >
<title>__napi_poll (1 samples, 6.67%)</title><rect x="639.3" y="279" width="78.7" height="10.0" fill="rgb(218,14,38)" rx="2" ry="2" />
<text  x="642.33" y="287" >__napi_poll</text>
</g>
<g >
<title>br_pass_frame_up (1 samples, 6.67%)</title><rect x="954.0" y="257" width="78.7" height="10.0" fill="rgb(236,225,29)" rx="2" ry="2" />
<text  x="957.00" y="265" >br_pass_f..</text>
</g>
<g >
<title>process_one_work (1 samples, 6.67%)</title><rect x="1032.7" y="290" width="78.6" height="10.0" fill="rgb(230,176,26)" rx="2" ry="2" />
<text  x="1035.67" y="298" >process_o..</text>
</g>
<g >
<title>blk_mq_request_issue_directly (1 samples, 6.67%)</title><rect x="1111.3" y="290" width="78.7" height="10.0" fill="rgb(233,68,0)" rx="2" ry="2" />
<text  x="1114.33" y="298" >blk_mq_re..</text>
</g>
<g >
<title>br_handle_frame (1 samples, 6.67%)</title><rect x="403.3" y="191" width="78.7" height="10.0" fill="rgb(230,175,33)" rx="2" ry="2" />
<text  x="406.33" y="199" >br_handle..</text>
</g>
<g >
<title>[libc.so] (1 samples, 6.67%)</title><rect x="796.7" y="257" width="78.6" height="10.0" fill="rgb(245,98,12)" rx="2" ry="2" />
<text  x="799.67" y="265" >[libc.so]</text>
</g>
<g >
<title>__handle_domain_irq (1 samples, 6.67%)</title><rect x="954.0" y="136" width="78.7" height="10.0" fill="rgb(243,167,47)" rx="2" ry="2" />
<text  x="957.00" y="144" >__handle_..</text>
</g>
<g >
<title>ksoftirqd/0 (1 samples, 6.67%)</title><rect x="403.3" y="59" width="78.7" height="10.0" fill="rgb(210,145,54)" rx="2" ry="2" />
<text  x="406.33" y="67" >ksoftirqd/0</text>
</g>
<g >
<title>jbd2/sda3-8 (1 samples, 6.67%)</title><rect x="1111.3" y="180" width="78.7" height="10.0" fill="rgb(242,129,30)" rx="2" ry="2" />
<text  x="1114.33" y="188" >jbd2/sda3-8</text>
</g>
<g >
<title>dnsmasq (2 samples, 13.33%)</title><rect x="88.7" y="257" width="157.3" height="10.0" fill="rgb(254,64,4)" rx="2" ry="2" />
<text  x="91.67" y="265" >dnsmasq</text>
</g>
<g >
<title>[dnsmasq] (3 samples, 20.00%)</title><rect x="10.0" y="301" width="236.0" height="10.0" fill="rgb(228,125,26)" rx="2" ry="2" />
<text  x="13.00" y="309" >[dnsmasq]</text>
</g>
<g >
<title>ret_from_fork (1 samples, 6.67%)</title><rect x="1032.7" y="257" width="78.6" height="10.0" fill="rgb(232,195,0)" rx="2" ry="2" />
<text  x="1035.67" y="265" >ret_from_..</text>
</g>
<g >
<title>blk_mq_try_issue_list_directly (1 samples, 6.67%)</title><rect x="1111.3" y="279" width="78.7" height="10.0" fill="rgb(247,45,12)" rx="2" ry="2" />
<text  x="1114.33" y="287" >blk_mq_tr..</text>
</g>
<g >
<title>[unknown] (1 samples, 6.67%)</title><rect x="796.7" y="224" width="78.6" height="10.0" fill="rgb(238,22,42)" rx="2" ry="2" />
<text  x="799.67" y="232" >[unknown]</text>
</g>
<g >
<title>__blk_mq_try_issue_directly (1 samples, 6.67%)</title><rect x="1111.3" y="301" width="78.7" height="10.0" fill="rgb(216,218,19)" rx="2" ry="2" />
<text  x="1114.33" y="309" >__blk_mq_..</text>
</g>
<g >
<title>net_rx_action (1 samples, 6.67%)</title><rect x="403.3" y="125" width="78.7" height="10.0" fill="rgb(222,5,19)" rx="2" ry="2" />
<text  x="406.33" y="133" >net_rx_ac..</text>
</g>
<g >
<title>netif_receive_skb (1 samples, 6.67%)</title><rect x="954.0" y="268" width="78.7" height="10.0" fill="rgb(216,101,30)" rx="2" ry="2" />
<text  x="957.00" y="276" >netif_rec..</text>
</g>
<g >
<title>od_dbs_update (1 samples, 6.67%)</title><rect x="560.7" y="301" width="78.6" height="10.0" fill="rgb(253,44,17)" rx="2" ry="2" />
<text  x="563.67" y="309" >od_dbs_up..</text>
</g>
<g >
<title>__softirqentry_text_start (1 samples, 6.67%)</title><rect x="403.3" y="114" width="78.7" height="10.0" fill="rgb(241,163,11)" rx="2" ry="2" />
<text  x="406.33" y="122" >__softirq..</text>
</g>
<g >
<title>__softirqentry_text_start (1 samples, 6.67%)</title><rect x="639.3" y="257" width="78.7" height="10.0" fill="rgb(235,68,37)" rx="2" ry="2" />
<text  x="642.33" y="265" >__softirq..</text>
</g>
<g >
<title>smpboot_thread_fn (1 samples, 6.67%)</title><rect x="403.3" y="92" width="78.7" height="10.0" fill="rgb(233,140,0)" rx="2" ry="2" />
<text  x="406.33" y="100" >smpboot_t..</text>
</g>
<g >
<title>[libc.so] (2 samples, 13.33%)</title><rect x="246.0" y="312" width="157.3" height="10.0" fill="rgb(230,184,17)" rx="2" ry="2" />
<text  x="249.00" y="320" >[libc.so]</text>
</g>
<g >
<title>phy_state_machine (1 samples, 6.67%)</title><rect x="482.0" y="235" width="78.7" height="10.0" fill="rgb(251,42,52)" rx="2" ry="2" />
<text  x="485.00" y="243" >phy_state..</text>
</g>
<g >
<title>__netif_receive_skb_one_core (1 samples, 6.67%)</title><rect x="954.0" y="290" width="78.7" height="10.0" fill="rgb(223,116,39)" rx="2" ry="2" />
<text  x="957.00" y="298" >__netif_r..</text>
</g>
<g >
<title>start_kernel (1 samples, 6.67%)</title><rect x="718.0" y="268" width="78.7" height="10.0" fill="rgb(207,208,32)" rx="2" ry="2" />
<text  x="721.00" y="276" >start_ker..</text>
</g>
<g >
<title>process_one_work (1 samples, 6.67%)</title><rect x="482.0" y="224" width="78.7" height="10.0" fill="rgb(235,111,27)" rx="2" ry="2" />
<text  x="485.00" y="232" >process_o..</text>
</g>
</g>
</svg>
